#!OML:ASF X:\für Bonn\!DataBase\2005_08_11_Bastian_Final\c3d\Bastian.ASF
:FULLY-SPECIFIED
:DEGREES
271
root 11.4712 17.3733 -3.20158 186.304 77.1005 -167.1
lowerback 17.1131 -2.27243 4.61061
upperback 12.9964 -1.20377 2.75905
thorax 4.33646 0.108034 0.537298
lowerneck -5.97885 -8.66096 -5.86282
upperneck -4.44511 -11.0419 10.6165
head 0.634046 -5.38648 4.15341
rclavicle 9.54166e-015 2.46493e-014
rhumerus -32.2685 24.6419 -89.3233
rradius 30.3705
rwrist -7.31646
rhand -17.2103 1.65894
rfingers 7.12502
rthumb 9.03245 -28.1277
lclavicle 9.54166e-015 2.46493e-014
lhumerus -12.2493 -24.0415 87.1342
lradius 34.8814
lwrist 20.5005
lhand -12.4915 -8.49997
lfingers 7.12502
lthumb 13.5833 21.0369
rfemur -8.86682 -1.65207 26.3978
rtibia 37.2677
rfoot -16.0549 -9.96768
rtoes 0.210018
lfemur 5.31439 0.645992 -15.3526
ltibia 27.8375
lfoot -17.0795 -3.10653
ltoes -23.6694
272
root 11.5302 17.3722 -3.18439 186.596 77.0027 -166.673
lowerback 16.7187 -2.22967 4.62401
upperback 12.8829 -1.19795 2.71751
thorax 4.41296 0.102648 0.477754
lowerneck -5.95449 -8.6399 -5.9612
upperneck -3.97368 -11.0487 10.6979
head 0.796869 -5.38423 4.18967
rclavicle -8.34896e-015 2.3059e-014
rhumerus -32.4397 24.028 -89.4555
rradius 30.1116
rwrist -7.211
rhand -17.2154 1.69474
rfingers 7.12502
rthumb 9.02753 -28.0921
lclavicle -8.34896e-015 2.3059e-014
lhumerus -12.5243 -23.6634 87.2342
lradius 34.614
lwrist 20.3922
lhand -12.5283 -8.4468
lfingers 7.12502
lthumb 13.5479 21.0925
rfemur -8.3985 -1.61511 26.6445
rtibia 37.0531
rfoot -16.2122 -10.1305
rtoes 0.42713
lfemur 5.11342 0.477173 -15.1377
ltibia 28.7579
lfoot -16.8483 -3.05109
ltoes -24.3969
273
root 11.5872 17.3702 -3.16984 186.97 76.908 -166.179
lowerback 16.3207 -2.19034 4.70061
upperback 12.7821 -1.18752 2.67503
thorax 4.50574 0.105346 0.381834
lowerneck -5.92079 -8.6423 -6.10859
upperneck -3.54636 -11.0817 10.8291
head 0.953327 -5.39471 4.25308
rclavicle 1.98785e-015 -4.37326e-014
rhumerus -32.5855 23.4645 -89.5498
rradius 29.9019
rwrist -7.18789
rhand -17.2311 1.73961
rfingers 7.12502
rthumb 9.01235 -28.0479
lclavicle 1.98785e-015 -4.37326e-014
lhumerus -12.7525 -23.2973 87.3096
lradius 34.3372
lwrist 20.3072
lhand -12.5117 -8.39439
lfingers 7.12502
lthumb 13.5639 21.1438
rfemur -7.92639 -1.60281 26.8875
rtibia 36.7899
rfoot -16.3787 -10.2375
rtoes 0.694096
lfemur 4.80219 0.300136 -14.921
ltibia 29.8308
lfoot -16.5646 -3.00042
ltoes -24.8572
274
root 11.644 17.3709 -3.15404 187.334 76.8084 -165.692
lowerback 15.942 -2.14823 4.7772
upperback 12.6801 -1.17179 2.61348
thorax 4.58804 0.111452 0.265503
lowerneck -5.88361 -8.63484 -6.15958
upperneck -3.11176 -11.1075 10.9161
head 1.10181 -5.40247 4.28413
rclavicle 2.78299e-015 5.00937e-014
rhumerus -32.6695 22.7441 -89.636
rradius 29.6475
rwrist -7.04496
rhand -17.2108 1.81992
rfingers 7.12502
rthumb 9.03194 -27.9667
lclavicle 2.78299e-015 5.00937e-014
lhumerus -13.0008 -22.9611 87.3564
lradius 34.0692
lwrist 20.2428
lhand -12.5678 -8.35436
lfingers 7.12502
lthumb 13.5098 21.1874
rfemur -7.44156 -1.62277 27.1367
rtibia 36.4794
rfoot -16.4755 -10.319
rtoes 0.916757
lfemur 4.41977 0.138476 -14.692
ltibia 31.0479
lfoot -16.2935 -2.97922
ltoes -25.2446
275
root 11.7009 17.3751 -3.139 187.615 76.7427 -165.282
lowerback 15.5889 -2.09708 4.80761
upperback 12.5902 -1.14591 2.58069
thorax 4.6727 0.119391 0.204996
lowerneck -5.87439 -8.63802 -6.30576
upperneck -2.69348 -11.1404 11.0035
head 1.25754 -5.41232 4.3324
rclavicle -7.95139e-016 4.77083e-015
rhumerus -32.7832 22.1201 -89.6527
rradius 29.4969
rwrist -6.9683
rhand -17.1671 1.85243
rfingers 7.12502
rthumb 9.0741 -27.9324
lclavicle -7.95139e-016 4.77083e-015
lhumerus -13.2179 -22.4599 87.4486
lradius 33.7359
lwrist 20.0393
lhand -12.6052 -8.35905
lfingers 7.12502
lthumb 13.4738 21.1851
rfemur -6.91643 -1.57518 27.3599
rtibia 36.1193
rfoot -16.5616 -10.425
rtoes 1.38499
lfemur 3.96328 -0.00647243 -14.4933
ltibia 32.4144
lfoot -16.0309 -2.91993
ltoes -25.8284
276
root 11.7572 17.3811 -3.12374 187.744 76.6617 -165.022
lowerback 15.2692 -2.0565 4.79647
upperback 12.4944 -1.13537 2.54119
thorax 4.73384 0.116592 0.162749
lowerneck -5.8358 -8.63099 -6.44365
upperneck -2.27728 -11.1614 11.0771
head 1.40526 -5.41736 4.37692
rclavicle -8.34896e-015 7.95139e-016
rhumerus -32.8658 21.531 -89.6761
rradius 29.3185
rwrist -6.92027
rhand -17.1321 1.8554
rfingers 7.12502
rthumb 9.10785 -27.9279
lclavicle -8.34896e-015 7.95139e-016
lhumerus -13.4703 -21.8768 87.5403
lradius 33.3904
lwrist 19.7878
lhand -12.6736 -8.40415
lfingers 7.12502
lthumb 13.4078 21.1444
rfemur -6.37212 -1.59328 27.5485
rtibia 35.7256
rfoot -16.6153 -10.5186
rtoes 1.55124
lfemur 3.43272 -0.185282 -14.3356
ltibia 33.9187
lfoot -15.7887 -2.84722
ltoes -26.4946
277
root 11.8123 17.3874 -3.10908 187.742 76.5979 -164.882
lowerback 14.9714 -2.00449 4.76682
upperback 12.4265 -1.10682 2.49081
thorax 4.81544 0.124335 0.118255
lowerneck -5.85157 -8.6278 -6.50051
upperneck -1.87551 -11.1806 11.5009
head 1.43076 -5.40661 4.06765
rclavicle -1.86858e-014 1.27222e-014
rhumerus -32.9331 21.0137 -89.6963
rradius 29.2072
rwrist -7.01374
rhand -17.0931 1.85892
rfingers 7.12502
rthumb 9.14549 -27.9228
lclavicle -1.86858e-014 1.27222e-014
lhumerus -13.6478 -21.2872 87.6128
lradius 32.9998
lwrist 19.5147
lhand -12.817 -8.48402
lfingers 7.12502
lthumb 13.2696 21.0736
rfemur -5.8086 -1.58054 27.6973
rtibia 35.311
rfoot -16.6701 -10.5951
rtoes 1.92163
lfemur 2.85235 -0.394717 -14.2254
ltibia 35.546
lfoot -15.5087 -2.74057
ltoes -26.9931
278
root 11.8676 17.3947 -3.0936 187.473 76.5354 -164.999
lowerback 14.7107 -1.95832 4.64308
upperback 12.3599 -1.0916 2.44745
thorax 4.88001 0.11859 0.135599
lowerneck -5.84594 -8.62226 -6.6172
upperneck -1.48886 -11.2013 11.5297
head 1.55405 -5.40969 4.08348
rclavicle -3.97569e-016 -1.98785e-015
rhumerus -32.9812 20.48 -89.687
rradius 29.1005
rwrist -7.00588
rhand -17.0749 1.81757
rfingers 7.12502
rthumb 9.16302 -27.9634
lclavicle -3.97569e-016 -1.98785e-015
lhumerus -13.8505 -20.6463 87.6914
lradius 32.542
lwrist 19.2536
lhand -12.9004 -8.69439
lfingers 7.12502
lthumb 13.1892 20.8684
rfemur -5.22174 -1.57048 27.7924
rtibia 34.8927
rfoot -16.715 -10.6846
rtoes 2.14881
lfemur 2.2141 -0.515732 -14.1492
ltibia 37.2758
lfoot -15.1691 -2.71877
ltoes -27.6943
279
root 11.9213 17.4011 -3.07922 187.082 76.4765 -165.241
lowerback 14.4982 -1.90546 4.5363
upperback 12.2722 -1.06199 2.37068
thorax 4.89541 0.120954 0.106982
lowerneck -5.75125 -8.61129 -6.71484
upperneck -1.15196 -11.2165 11.6049
head 1.64986 -5.41291 4.11561
rclavicle -8.94531e-015 -2.46493e-014
rhumerus -33.0812 19.9206 -89.7181
rradius 29.0039
rwrist -7.0227
rhand -17.0675 1.81701
rfingers 7.12502
rthumb 9.1702 -27.9636
lclavicle -8.94531e-015 -2.46493e-014
lhumerus -14.1087 -20.0504 87.765
lradius 32.0814
lwrist 19.0612
lhand -12.9941 -8.86011
lfingers 7.12502
lthumb 13.0989 20.7085
rfemur -4.64835 -1.55159 27.8446
rtibia 34.4834
rfoot -16.7516 -10.7704
rtoes 2.58927
lfemur 1.51998 -0.611936 -14.1017
ltibia 39.0648
lfoot -14.7682 -2.71903
ltoes -28.1463
280
root 11.9752 17.4073 -3.06447 186.764 76.4216 -165.444
lowerback 14.2589 -1.85225 4.42375
upperback 12.189 -1.03397 2.30301
thorax 4.93062 0.122084 0.0914158
lowerneck -5.69381 -8.60019 -6.82634
upperneck -0.788441 -11.2315 11.6853
head 1.76065 -5.41411 4.14936
rclavicle -1.98785e-014 -1.19271e-015
rhumerus -33.1232 19.3803 -89.7522
rradius 28.8928
rwrist -7.08177
rhand -17.1015 1.73848
rfingers 7.12502
rthumb 9.13739 -28.0436
lclavicle -1.98785e-014 -1.19271e-015
lhumerus -14.3448 -19.4076 87.8239
lradius 31.5814
lwrist 18.8608
lhand -13.0287 -8.99582
lfingers 7.12502
lthumb 13.0655 20.5749
rfemur -4.1109 -1.48928 27.9191
rtibia 34.076
rfoot -16.8049 -10.8928
rtoes 2.94709
lfemur 0.727584 -0.636868 -14.0261
ltibia 40.8886
lfoot -14.3552 -2.7508
ltoes -28.6915
